<svg id="visual" viewBox="0 0 900 600" width="900" height="600" xmlns="http://www.w3.org/2000/svg" xmlns:xlink="http://www.w3.org/1999/xlink" version="1.1"><g stroke-width="1" stroke-linejoin="bevel"><path d="M521 297L510 369L599 306Z" fill="#284a5b" stroke="#284a5b"></path><path d="M510 369L572 405L599 306Z" fill="#132937" stroke="#132937"></path><path d="M497 487L588 477L572 405Z" fill="#0b1d29" stroke="#0b1d29"></path><path d="M572 405L693 387L599 306Z" fill="#00101c" stroke="#00101c"></path><path d="M689 229L627 214L599 306Z" fill="#071722" stroke="#071722"></path><path d="M599 306L627 214L521 297Z" fill="#1b3645" stroke="#1b3645"></path><path d="M588 477L693 387L572 405Z" fill="#284a5b" stroke="#284a5b"></path><path d="M627 214L487 208L521 297Z" fill="#234353" stroke="#234353"></path><path d="M521 297L402 360L510 369Z" fill="#0f2330" stroke="#0f2330"></path><path d="M375 266L402 360L521 297Z" fill="#234353" stroke="#234353"></path><path d="M510 369L497 487L572 405Z" fill="#284a5b" stroke="#284a5b"></path><path d="M402 360L497 487L510 369Z" fill="#0b1d29" stroke="#0b1d29"></path><path d="M727 302L689 229L599 306Z" fill="#0b1d29" stroke="#0b1d29"></path><path d="M693 387L727 302L599 306Z" fill="#00101c" stroke="#00101c"></path><path d="M487 208L375 266L521 297Z" fill="#2c5162" stroke="#2c5162"></path><path d="M588 477L699 486L693 387Z" fill="#071722" stroke="#071722"></path><path d="M693 387L777 362L727 302Z" fill="#00101c" stroke="#00101c"></path><path d="M610 600L699 486L588 477Z" fill="#284a5b" stroke="#284a5b"></path><path d="M402 360L405 487L497 487Z" fill="#234353" stroke="#234353"></path><path d="M338 402L405 487L402 360Z" fill="#00101c" stroke="#00101c"></path><path d="M502 98L422 172L487 208Z" fill="#132937" stroke="#132937"></path><path d="M487 208L422 172L375 266Z" fill="#234353" stroke="#234353"></path><path d="M699 486L777 362L693 387Z" fill="#234353" stroke="#234353"></path><path d="M812 183L685 91L689 229Z" fill="#1b3645" stroke="#1b3645"></path><path d="M685 91L571 114L627 214Z" fill="#1b3645" stroke="#1b3645"></path><path d="M627 214L571 114L487 208Z" fill="#1f3c4c" stroke="#1f3c4c"></path><path d="M281 284L338 402L402 360Z" fill="#1f3c4c" stroke="#1f3c4c"></path><path d="M571 114L502 98L487 208Z" fill="#00101c" stroke="#00101c"></path><path d="M502 98L415 134L422 172Z" fill="#071722" stroke="#071722"></path><path d="M283 211L281 284L375 266Z" fill="#00101c" stroke="#00101c"></path><path d="M487 600L610 600L497 487Z" fill="#132937" stroke="#132937"></path><path d="M497 487L610 600L588 477Z" fill="#1f3c4c" stroke="#1f3c4c"></path><path d="M386 600L487 600L405 487Z" fill="#284a5b" stroke="#284a5b"></path><path d="M405 487L487 600L497 487Z" fill="#132937" stroke="#132937"></path><path d="M812 183L689 229L727 302Z" fill="#2c5162" stroke="#2c5162"></path><path d="M689 229L685 91L627 214Z" fill="#1b3645" stroke="#1b3645"></path><path d="M571 114L560 0L502 98Z" fill="#284a5b" stroke="#284a5b"></path><path d="M283 211L375 266L422 172Z" fill="#234353" stroke="#234353"></path><path d="M375 266L281 284L402 360Z" fill="#1b3645" stroke="#1b3645"></path><path d="M900 306L836 309L900 391Z" fill="#0b1d29" stroke="#0b1d29"></path><path d="M777 362L836 309L727 302Z" fill="#1b3645" stroke="#1b3645"></path><path d="M727 600L767 531L699 486Z" fill="#1b3645" stroke="#1b3645"></path><path d="M699 486L767 531L777 362Z" fill="#0f2330" stroke="#0f2330"></path><path d="M836 309L812 183L727 302Z" fill="#1b3645" stroke="#1b3645"></path><path d="M330 128L283 211L422 172Z" fill="#172f3e" stroke="#172f3e"></path><path d="M381 0L330 128L415 134Z" fill="#284a5b" stroke="#284a5b"></path><path d="M415 134L330 128L422 172Z" fill="#172f3e" stroke="#172f3e"></path><path d="M262 474L386 600L405 487Z" fill="#071722" stroke="#071722"></path><path d="M262 474L405 487L338 402Z" fill="#132937" stroke="#132937"></path><path d="M610 600L727 600L699 486Z" fill="#0b1d29" stroke="#0b1d29"></path><path d="M230 501L262 474L177 436Z" fill="#071722" stroke="#071722"></path><path d="M177 436L262 474L338 402Z" fill="#1f3c4c" stroke="#1f3c4c"></path><path d="M900 196L812 130L812 183Z" fill="#1b3645" stroke="#1b3645"></path><path d="M812 183L812 130L685 91Z" fill="#132937" stroke="#132937"></path><path d="M709 0L560 0L685 91Z" fill="#1b3645" stroke="#1b3645"></path><path d="M685 91L560 0L571 114Z" fill="#1b3645" stroke="#1b3645"></path><path d="M502 98L381 0L415 134Z" fill="#2c5162" stroke="#2c5162"></path><path d="M560 0L525 0L502 98Z" fill="#0b1d29" stroke="#0b1d29"></path><path d="M900 391L836 309L777 362Z" fill="#00101c" stroke="#00101c"></path><path d="M836 309L900 196L812 183Z" fill="#1f3c4c" stroke="#1f3c4c"></path><path d="M900 391L777 362L900 490Z" fill="#2c5162" stroke="#2c5162"></path><path d="M900 490L777 362L767 531Z" fill="#132937" stroke="#132937"></path><path d="M330 128L237 174L283 211Z" fill="#1b3645" stroke="#1b3645"></path><path d="M283 211L185 299L281 284Z" fill="#2c5162" stroke="#2c5162"></path><path d="M207 77L237 174L330 128Z" fill="#2c5162" stroke="#2c5162"></path><path d="M727 600L805 600L767 531Z" fill="#0f2330" stroke="#0f2330"></path><path d="M177 436L338 402L281 284Z" fill="#1b3645" stroke="#1b3645"></path><path d="M262 474L265 600L386 600Z" fill="#00101c" stroke="#00101c"></path><path d="M771 0L709 0L685 91Z" fill="#0b1d29" stroke="#0b1d29"></path><path d="M237 174L185 299L283 211Z" fill="#071722" stroke="#071722"></path><path d="M900 306L900 196L836 309Z" fill="#172f3e" stroke="#172f3e"></path><path d="M812 130L771 0L685 91Z" fill="#1f3c4c" stroke="#1f3c4c"></path><path d="M805 600L900 490L767 531Z" fill="#172f3e" stroke="#172f3e"></path><path d="M525 0L381 0L502 98Z" fill="#284a5b" stroke="#284a5b"></path><path d="M230 501L265 600L262 474Z" fill="#071722" stroke="#071722"></path><path d="M185 299L177 436L281 284Z" fill="#132937" stroke="#132937"></path><path d="M230 501L207 600L265 600Z" fill="#234353" stroke="#234353"></path><path d="M900 0L771 0L812 130Z" fill="#0b1d29" stroke="#0b1d29"></path><path d="M381 0L337 0L330 128Z" fill="#1f3c4c" stroke="#1f3c4c"></path><path d="M900 196L900 113L812 130Z" fill="#284a5b" stroke="#284a5b"></path><path d="M128 239L132 269L185 299Z" fill="#071722" stroke="#071722"></path><path d="M185 299L81 371L177 436Z" fill="#132937" stroke="#132937"></path><path d="M128 239L185 299L237 174Z" fill="#00101c" stroke="#00101c"></path><path d="M805 600L900 600L900 490Z" fill="#172f3e" stroke="#172f3e"></path><path d="M131 522L230 501L177 436Z" fill="#1f3c4c" stroke="#1f3c4c"></path><path d="M131 522L207 600L230 501Z" fill="#1f3c4c" stroke="#1f3c4c"></path><path d="M337 0L207 77L330 128Z" fill="#00101c" stroke="#00101c"></path><path d="M64 131L128 239L237 174Z" fill="#2c5162" stroke="#2c5162"></path><path d="M81 371L131 522L177 436Z" fill="#172f3e" stroke="#172f3e"></path><path d="M81 371L185 299L132 269Z" fill="#1f3c4c" stroke="#1f3c4c"></path><path d="M0 312L81 371L132 269Z" fill="#0f2330" stroke="#0f2330"></path><path d="M900 113L900 0L812 130Z" fill="#234353" stroke="#234353"></path><path d="M337 0L180 0L207 77Z" fill="#071722" stroke="#071722"></path><path d="M207 77L64 131L237 174Z" fill="#071722" stroke="#071722"></path><path d="M0 227L0 312L132 269Z" fill="#1f3c4c" stroke="#1f3c4c"></path><path d="M74 0L64 131L207 77Z" fill="#0b1d29" stroke="#0b1d29"></path><path d="M0 504L131 522L81 371Z" fill="#1f3c4c" stroke="#1f3c4c"></path><path d="M0 504L71 600L131 522Z" fill="#071722" stroke="#071722"></path><path d="M131 522L71 600L207 600Z" fill="#132937" stroke="#132937"></path><path d="M0 227L132 269L128 239Z" fill="#172f3e" stroke="#172f3e"></path><path d="M0 312L0 396L81 371Z" fill="#1f3c4c" stroke="#1f3c4c"></path><path d="M64 131L0 227L128 239Z" fill="#172f3e" stroke="#172f3e"></path><path d="M0 396L0 504L81 371Z" fill="#00101c" stroke="#00101c"></path><path d="M180 0L74 0L207 77Z" fill="#1b3645" stroke="#1b3645"></path><path d="M64 131L0 89L0 227Z" fill="#234353" stroke="#234353"></path><path d="M74 0L0 89L64 131Z" fill="#234353" stroke="#234353"></path><path d="M0 504L0 600L71 600Z" fill="#071722" stroke="#071722"></path><path d="M74 0L0 0L0 89Z" fill="#0b1d29" stroke="#0b1d29"></path></g></svg>